<?xml version="1.0" encoding="UTF-8" standalone="no"?>
<svg
   version="1.1"
   width="493"
   height="481"
   style="clip-rule:evenodd;fill-rule:evenodd;image-rendering:optimizeQuality;shape-rendering:geometricPrecision;text-rendering:geometricPrecision"
   id="svg11"
   sodipodi:docname="Screenshot from 2024-05-02 19-49-28.svg"
   inkscape:export-filename="../Downloads/dinheiro.svg"
   inkscape:export-xdpi="96"
   inkscape:export-ydpi="96"
   xmlns:inkscape="http://www.inkscape.org/namespaces/inkscape"
   xmlns:sodipodi="http://sodipodi.sourceforge.net/DTD/sodipodi-0.dtd"
   xmlns="http://www.w3.org/2000/svg"
   xmlns:svg="http://www.w3.org/2000/svg">
  <defs
     id="defs11" />
  <sodipodi:namedview
     id="namedview11"
     pagecolor="#ffffff"
     bordercolor="#000000"
     borderopacity="0.25"
     inkscape:showpageshadow="2"
     inkscape:pageopacity="0.0"
     inkscape:pagecheckerboard="0"
     inkscape:deskcolor="#d1d1d1" />
  <g
     id="g2">
    <path
       style="opacity:1"
       fill="#480d58"
       d="m 397.5,90.5 c 0.283,0.7891 0.783,1.4558 1.5,2 0.5,-9.3274 0.666,-18.6607 0.5,-28 6.667,0 13.333,0 20,0 0,21.3333 0,42.667 0,64 -0.772,5.272 -3.772,8.439 -9,9.5 -21.331,0.5 -42.664,0.667 -64,0.5 0,-7 0,-14 0,-21 16.078,0.332 31.412,-0.001 46,-1 C 349.317,69.5987 295.65,48.0987 231.5,52 165.939,59.6205 116.106,91.4538 82,147.5 56.9954,192.364 50.162,239.864 61.5,290 c -1.4973,8.487 -6.4973,11.821 -15,10 -4.0341,-2.761 -6.2007,-6.594 -6.5,-11.5 -14.5696,-82.628 8.9304,-152.128 70.5,-208.5 60.561,-48.4224 128.228,-61.7557 203,-40 32.013,10.4921 60.013,27.3254 84,50.5 z"
       id="path2" />
  </g>
  <g
     id="g6">
    <path
       style="opacity:1"
       fill="#460b57"
       d="m 232.5,121.5 c 53.312,-2.598 94.145,18.402 122.5,63 20.92,41.492 20.587,82.826 -1,124 -27.965,43.901 -68.132,64.401 -120.5,61.5 -41.799,-6.307 -73.633,-27.474 -95.5,-63.5 -24.216,-48.904 -20.216,-95.237 12,-139 21.683,-25.868 49.183,-41.201 82.5,-46 z"
       id="path6" />
  </g>
  <g
     id="g7">
    <path
       style="opacity:1"
       fill="#fcfbfc"
       d="m 239.5,318.5 c 0,-5 0,-10 0,-15 -1,0 -2,0 -3,0 -19.374,0.101 -32.207,-8.899 -38.5,-27 -0.497,-2.31 -0.663,-4.643 -0.5,-7 7,0 14,0 21,0 1.843,6.675 6.176,10.842 13,12.5 11,0.667 22,0.667 33,0 15.937,-5.603 16.937,-12.936 3,-22 -15.674,-3.444 -31.34,-6.778 -47,-10 -26.275,-12.602 -30.775,-30.435 -13.5,-53.5 9.098,-7.643 19.598,-10.977 31.5,-10 0,-5 0,-10 0,-15 7,0 14,0 21,0 0,5 0,10 0,15 16.318,-0.094 28.484,6.906 36.5,21 1.9,4.132 2.733,8.466 2.5,13 -7,0 -14,0 -21,0 -0.969,-5.808 -4.302,-9.641 -10,-11.5 -6.771,-1.085 -13.605,-1.585 -20.5,-1.5 -6.577,-0.105 -13.077,0.395 -19.5,1.5 -12.767,6.319 -13.1,12.985 -1,20 16.277,3.577 32.61,6.91 49,10 22.513,10.209 28.346,26.375 17.5,48.5 -8.41,10.289 -19.243,15.289 -32.5,15 0,5.333 0,10.667 0,16 -7,0 -14,0 -21,0 z"
       id="path7" />
  </g>
  <g
     id="g8">
    <path
       style="opacity:1"
       fill="#480d58"
       d="m 89.5,409.5 c -0.9834,3.798 -1.3168,7.798 -1,12 -6.6667,0 -13.3333,0 -20,0 0,-21.333 0,-42.667 0,-64 0.6132,-3.785 2.6132,-6.618 6,-8.5 22.6642,-0.5 45.331,-0.667 68,-0.5 0,7.333 0,14.667 0,22 -7,0 -14,0 -21,0 -5.819,-1.153 -11.819,-1.319 -18,-0.5 0.544,0.717 1.211,1.217 2,1.5 37.85,42.145 85.35,63.812 142.5,65 80.196,-2.917 138.529,-39.917 175,-111 18.864,-42.054 23.864,-85.721 15,-131 4.866,-9.422 11.199,-10.422 19,-3 17.189,82.425 -4.311,152.925 -64.5,211.5 -58.201,48.934 -124.535,64.6 -199,47 -40.472,-11.643 -74.972,-32.809 -103.5,-63.5 -0.4997,7.659 -0.6664,15.326 -0.5,23 z"
       id="path8" />
  </g>
</svg>
