<?xml version="1.0" encoding="UTF-8" standalone="no"?>
<svg
   version="1.1"
   width="635"
   height="310"
   style="clip-rule:evenodd;fill-rule:evenodd;image-rendering:optimizeQuality;shape-rendering:geometricPrecision;text-rendering:geometricPrecision"
   id="svg29"
   xmlns="http://www.w3.org/2000/svg"
   xmlns:svg="http://www.w3.org/2000/svg">
  <defs
     id="defs29" />
  <g
     id="g2">
    <path
       style="opacity:1"
       fill="#4b52ea"
       d="m 415.5,86.5 c 0.79,0.9013 1.79,1.5679 3,2 9.292,8.3237 18.626,16.657 28,25 0.667,0 1,0.333 1,1 55.164,0.999 110.497,1.332 166,1 0,1.333 0,2.667 0,4 -55.667,0 -111.333,0 -167,0 -4.667,-3.667 -9.333,-7.333 -14,-11 -6.343,-6.342 -13.009,-12.3416 -20,-18 -0.936,-1.4744 -2.27,-2.4744 -4,-3 -24.74,-22.218 -49.74,-44.218 -75,-66 -6.185,9.7027 -11.852,19.7027 -17,30 -0.941,1.5495 -1.607,3.2162 -2,5 -16.392,29.1106 -32.559,58.444 -48.5,88 -30.593,-24.039 -61.426,-47.7055 -92.5,-71 -0.936,-1.4744 -2.27,-2.4744 -4,-3 -10.357,-9.1827 -21.19,-17.8493 -32.5,-26 -23.376,26.5385 -46.5425,53.2052 -69.5,80 -4.0246,3.058 -7.3579,6.725 -10,11 -8.1,8.666 -16.1,17.499 -24,26.5 -8.3267,0.5 -16.66,0.666 -25,0.5 0,-1.333 0,-2.667 0,-4 7.6955,0.331 15.3622,-0.003 23,-1 3.4371,-4.55 7.1038,-8.883 11,-13 3.3617,-3.692 6.6951,-7.359 10,-11 27.7768,-31.375 55.443,-62.8747 83,-94.5 1.779,0.044 3.445,0.7107 5,2 11.367,9.337 23.034,18.1703 35,26.5 0.762,1.7624 2.096,2.7624 4,3 28.159,22.6756 56.659,45.009 85.5,67 15.389,-28.114 30.222,-56.4475 44.5,-85 1.474,-0.9363 2.474,-2.2697 3,-4 6.067,-11.7994 12.4,-23.4661 19,-35 28.02,24.3559 56.02,48.6892 84,73 z"
       id="path2" />
  </g>
  <g
     id="g3">
    <path
       style="opacity:1"
       fill="#fd4339"
       d="m 312.5,48.5 c -0.526,1.7303 -1.526,3.0637 -3,4 -14.847,-8.9236 -29.847,-17.5902 -45,-26 -28.193,14.93 -56.527,29.5967 -85,44 -1.904,-0.2376 -3.238,-1.2376 -4,-3 29.798,-15.3992 59.465,-31.0659 89,-47 16.028,9.345 32.028,18.6783 48,28 z"
       id="path3" />
  </g>
  <g
     id="g6">
    <path
       style="opacity:1"
       fill="#fd4339"
       d="m 531.5,77.5 c -4,0 -8,0 -12,0 24.908,-12.4541 49.908,-24.9541 75,-37.5 6.325,-0.4995 12.658,-0.6662 19,-0.5 0,1.6667 0,3.3333 0,5 -6.009,-0.1662 -12.009,5e-4 -18,0.5 -21.55,10.6078 -42.883,21.4411 -64,32.5 z"
       id="path6" />
  </g>
  <g
     id="g8">
    <path
       style="opacity:1"
       fill="#fd4339"
       d="m 316.5,51.5 c 25.172,14.4178 50.172,29.0845 75,44 -1.797,1.2298 -3.797,1.8964 -6,2 -23.425,-14.0938 -47.092,-27.7604 -71,-41 0.393,-1.7838 1.059,-3.4505 2,-5 z"
       id="path8" />
  </g>
  <g
     id="g9">
    <path
       style="opacity:1"
       fill="#fd4339"
       d="m 169.5,70.5 c 1.73,0.5256 3.064,1.5256 4,3 -38.341,21.1721 -77.0079,41.839 -116,62 2.6421,-4.275 5.9754,-7.942 10,-11 34.324,-17.494 68.324,-35.4942 102,-54 z"
       id="path9" />
  </g>
  <g
     id="g10">
    <path
       style="opacity:1"
       fill="#fdb02e"
       d="m 519.5,77.5 c 4,0 8,0 12,0 27.333,0 54.667,0 82,0 0,1.6667 0,3.3333 0,5 -31.667,0 -63.333,0 -95,0 -3.667,0 -7.333,0 -11,0 -25.002,-0.1666 -50.002,0 -75,0.5 -4.576,2.1235 -9.243,3.9569 -14,5.5 -1.21,-0.4321 -2.21,-1.0987 -3,-2 4.756,-3.5498 10.09,-6.3831 16,-8.5 29.331,-0.5 58.665,-0.6666 88,-0.5 z"
       id="path10" />
  </g>
  <g
     id="g12">
    <path
       style="opacity:1"
       fill="#fd4036"
       d="m 507.5,82.5 c 3.667,0 7.333,0 11,0 -20.45,10.7256 -41.116,21.226 -62,31.5 -2.982,0.498 -5.982,0.665 -9,0.5 0,-0.667 -0.333,-1 -1,-1 20.458,-10.062 40.791,-20.3958 61,-31 z"
       id="path12" />
  </g>
  <g
     id="g13">
    <path
       style="opacity:1"
       fill="#42b64c"
       d="m 597.5,87.5 c 5.333,0 10.667,0 16,0 0,1.6667 0,3.3333 0,5 -4.384,-0.3256 -8.717,0.0078 -13,1 -2.964,6.921 -5.631,13.921 -8,21 -2.027,0.162 -4.027,-0.005 -6,-0.5 3.961,-8.719 7.628,-17.5523 11,-26.5 z"
       id="path13" />
  </g>
  <g
     id="g14">
    <path
       style="opacity:1"
       fill="#feb338"
       d="m 408.5,87.5 c 1.73,0.5256 3.064,1.5256 4,3 -4.538,2.8502 -9.204,5.5169 -14,8 -2.741,0.2073 -5.074,1.2073 -7,3 -33.647,14.099 -66.981,28.766 -100,44 -2.053,-0.098 -3.72,0.569 -5,2 -7.149,37.891 -13.982,75.891 -20.5,114 -17.671,-16.172 -35.171,-32.505 -52.5,-49 -0.762,-1.762 -2.096,-2.762 -4,-3 -18.348,-18.682 -37.348,-36.682 -57,-54 -35.779,15.479 -71.4455,31.146 -107,47 -2.0739,1.014 -4.0739,2.014 -6,3 -3.3377,1.336 -6.6711,2.669 -10,4 -6.6667,0 -13.3333,0 -20,0 0,-1.333 0,-2.667 0,-4 6.5221,0.323 12.8554,-0.01 19,-1 2.2496,-0.63 4.2496,-1.63 6,-3 2.0529,0.098 3.7196,-0.569 5,-2 38.0586,-16.467 76.059,-33.133 114,-50 19.719,19.055 39.719,37.722 60,56 0.762,1.762 2.096,2.762 4,3 14.351,14.684 29.351,28.684 45,42 6.981,-35.531 13.315,-71.198 19,-107 1.653,-0.16 2.986,-0.826 4,-2 1.653,-0.16 2.986,-0.826 4,-2 32.479,-13.043 64.479,-27.043 96,-42 2.203,-0.1036 4.203,-0.7702 6,-2 5.91,-2.2957 11.577,-4.9624 17,-8 z"
       id="path14" />
  </g>
  <g
     id="g16">
    <path
       style="opacity:1"
       fill="#fc4338"
       d="m 398.5,98.5 c 9.499,6.251 19.166,12.251 29,18 -0.526,1.73 -1.526,3.064 -3,4 -10.864,-6.598 -21.864,-12.931 -33,-19 1.926,-1.7927 4.259,-2.7927 7,-3 z"
       id="path16" />
  </g>
  <g
     id="g18">
    <path
       style="opacity:1"
       fill="#48b850"
       d="m 432.5,108.5 c 4.667,3.667 9.333,7.333 14,11 0.709,0.904 1.709,1.237 3,1 34.008,26.101 68.175,52.101 102.5,78 10.409,-26.064 20.909,-52.064 31.5,-78 2.027,-0.162 4.027,0.005 6,0.5 -11.962,28.094 -23.796,56.261 -35.5,84.5 -37.774,-28.464 -75.607,-56.797 -113.5,-85 -1,-0.667 -2,-1.333 -3,-2 -2.372,-2.976 -4.039,-2.643 -5,1 -1.474,0.936 -2.474,2.27 -3,4 -35.476,54.935 -70.976,109.935 -106.5,165 -12.348,-47.063 -24.515,-94.063 -36.5,-141 1.28,-1.431 2.947,-2.098 5,-2 11.314,43.59 22.481,87.256 33.5,131 33.438,-51.887 66.604,-103.887 99.5,-156 1.474,-0.936 2.474,-2.27 3,-4 1.653,-2.631 3.319,-5.297 5,-8 z"
       id="path18" />
  </g>
  <g
     id="g19">
    <path
       style="opacity:1"
       fill="#eee5db"
       d="m 437.5,118.5 c -1.716,0.129 -3.383,0.462 -5,1 0.961,-3.643 2.628,-3.976 5,-1 z"
       id="path19" />
  </g>
  <g
     id="g20">
    <path
       style="opacity:1"
       fill="#fa4639"
       d="m 437.5,118.5 c 1,0.667 2,1.333 3,2 -2.876,4.288 -6.543,5.288 -11,3 0.526,-1.73 1.526,-3.064 3,-4 1.617,-0.538 3.284,-0.871 5,-1 z"
       id="path20" />
  </g>
  <g
     id="g22">
    <path
       style="opacity:1"
       fill="#46b74e"
       d="m 289.5,139.5 c -1.014,1.174 -2.347,1.84 -4,2 0.131,-0.739 -0.036,-1.406 -0.5,-2 -1.376,1.205 -2.542,2.538 -3.5,4 -21.306,21.64 -42.639,43.306 -64,65 -1.904,-0.238 -3.238,-1.238 -4,-3 24.297,-25.465 48.797,-50.798 73.5,-76 1.461,3.179 2.295,6.512 2.5,10 z"
       id="path22" />
  </g>
  <g
     id="g23">
    <path
       style="opacity:1"
       fill="#fd4f45"
       d="m 52.5,133.5 c -3.3049,3.641 -6.6383,7.308 -10,11 -5.9235,2.295 -11.5901,5.128 -17,8.5 -5.6569,0.499 -11.3236,0.666 -17,0.5 0,-2 0,-4 0,-6 5.6764,0.166 11.3431,-0.001 17,-0.5 8.7432,-5.038 17.7432,-9.538 27,-13.5 z"
       id="path23" />
  </g>
  <g
     id="g24">
    <path
       style="opacity:1"
       fill="#deeaca"
       d="m 285.5,141.5 c -1.014,1.174 -2.347,1.84 -4,2 0.958,-1.462 2.124,-2.795 3.5,-4 0.464,0.594 0.631,1.261 0.5,2 z"
       id="path24" />
  </g>
  <g
     id="g27">
    <path
       style="opacity:1"
       fill="#49b850"
       d="m 39.5,199.5 c -1.2804,1.431 -2.9471,2.098 -5,2 -1.5938,-1.483 -3.2605,-2.983 -5,-4.5 -6.9921,-0.5 -13.9921,-0.666 -21,-0.5 0,-1.667 0,-3.333 0,-5 7.6739,-0.166 15.3406,0 23,0.5 2.9315,2.285 5.5982,4.785 8,7.5 z"
       id="path27" />
  </g>
  <g
     id="g28">
    <path
       style="opacity:1"
       fill="#49b851"
       d="m 45.5,202.5 c 31.489,26.007 63.322,51.674 95.5,77 22.701,-23.533 45.534,-46.867 68.5,-70 1.904,0.238 3.238,1.238 4,3 -23.979,24.312 -47.979,48.646 -72,73 -34.03,-26.675 -68.0302,-53.342 -102,-80 1.9261,-0.986 3.9261,-1.986 6,-3 z"
       id="path28" />
  </g>
  <g
     id="g29">
    <path
       style="opacity:1"
       fill="#ffd896"
       d="m 28.5,204.5 c -6.1446,0.99 -12.4779,1.323 -19,1 0,1.333 0,2.667 0,4 6.6667,0 13.3333,0 20,0 -6.8134,0.991 -13.8134,1.325 -21,1 0,-2 0,-4 0,-6 6.6667,0 13.3333,0 20,0 z"
       id="path29" />
  </g>
</svg>
