<?xml version="1.0" encoding="UTF-8" standalone="no"?>
<svg
   version="1.0"
   width="426pt"
   height="316pt"
   viewBox="0 0 426 316"
   preserveAspectRatio="xMidYMid"
   id="svg4"
   xmlns="http://www.w3.org/2000/svg"
   xmlns:svg="http://www.w3.org/2000/svg">
  <defs
     id="defs4" />
  <metadata
     id="metadata1">
Created by potrace 1.16, written by Peter Selinger 2001-2019
</metadata>
  <g
     transform="matrix(0.1,0,0,-0.1,-19.091883,302.21142)"
     fill="#000000"
     stroke="none"
     id="g4">
    <path
       d="m 897,2626 c -8,-19 12,-36 42,-36 41,0 110,-39 127,-72 13,-26 8.6967,-47 5,-148 -3.3376,-165.425 -8.2801,-424.1938 -20,-767 -7,-200 -9,-214 -32,-247 -18,-27 -36,-38 -82,-51 -44,-13 -57,-20 -55,-33 3,-15 26,-17 211,-20 l 208,-2 -3,22 c -2,18 -13,24 -61,33 -69,14 -97,38 -107,94 -4,23 -5,255 -2,515 4,393 7,473 18,469 8,-3 11.5391,-9 14,-15 3.4153,-8.3268 73,-181 127,-298 14,-30 34,-74 44,-97 32,-72 56,-124 103,-226 25,-54 46,-100 46,-102 0,-1 19,-43 41,-92 23,-48 59,-128 81,-178 46,-103 54,-115 79,-115 20,0 41,37 86,150 14,36 37,90 50,120 26,57 36,81 72,165 86.3401,181.1201 155.0928,370.226 237,553 15,31 34,74 43,94 9,21 19,38 22,38 4,0 10,-98 13,-217 12,-403 21,-558 31,-558 11,1 70.0338,126.8423 101.9887,178.1794 12,28 5.708,52.1577 1.0113,349.8206 -6,189 -8,360 -4,378 9,48 44,70 124,77 59,6 67,10 70,30 3,22 3,22 -135,22 -156,0 -166,-4 -201,-75 -22,-44 -23,-46 -141,-320 -100.0666,-240.28 -217.4667,-473.6886 -310,-717 -27.2998,-73.1291 -81.3486,85.5389 -94,112 -24,52 -54,118 -66,145 -13,28 -38,82 -56,120 -18,39 -42,90 -53,115 -11,25 -38,83 -60,130 -21,47 -52,114 -68,150 -81.0775,161.5172 -104.4973,337.6731 -315,340 -99,0 -128,-3 -132,-14 z"
       id="path1" />
    <path
       d="m 2909,2298 c -6,-12 -16,-27 -20,-32 -33,-42 -60,-78 -92,-126 -90.367,-135.5505 -238.3586,-338.9115 -298,-425 -22.1813,-31.5357 -48.0094,-69.1312 -72,-107 -6.3427,-10.3146 -49,-65 -93,-128 -44,-63 -102,-146 -129,-185 -27,-38 -58,-83 -69,-100 -12,-16 -23,-32 -26,-35 -3,-3 -13,-16 -22,-30 -9,-14 -91,-131 -181,-260 -247,-351 -279,-397 -314,-445 -18,-24 -33,-51 -33,-59 0,-16 34,-31 50,-21 5,3 40,50 76,103 124,179 164,237 218,312 30,41 81,113 113,160 114.8716,166.2511 230.7349,330.4633 348,495 27,39 93,133 147,210 53,77 103,148 110,159 7,10 24,33 38,52 14,18 40,55 58,81 19,26 81,115 138,197 57,83 104,158 104,168 0,9 -9,22 -20,28 -16,8 -21,6 -31,-12 z"
       id="path2" />
    <path
       d="m 3286,1558 c -14,-14 -53,-87 -92,-178 -36,-85 -75,-174 -85,-197 -11,-24 -27,-62 -38,-85 -10,-24 -28,-64 -40,-90 -33.6614,-79.56332 -66.6208,-168.51792 -88.25,-216 -16.7564,-50.162 -132.14,-366.55036 -173.795,-350.93243 -8.75,12.46875 -45.5391,64.6066 -63.5391,102.6066 C 2588.001,727.31931 2498.9752,1001.5809 2422,1184 c -8,5 -37.9375,-47.5625 -82,-113 -12,-24 -13.9375,-21.0625 70,-206 49.8603,-117.19195 105.4677,-232.78342 159,-349 42,-91 90,-195 117,-253 23,-51 33,-63 52,-63 17,0 27,9 39,38 8,20 23,55 33,77 10,22 39,90 64,150 26,61 53,124 61,140 33,76 49,113 65,150 10,22 39,90 65,150 25,61 52,124 60,140 7,17 25,59 40,95 14,36 35,83 45,105 9,22 21,49 25,60 7,19 8,18 15,-5 5,-14 9,-79 9,-145 1.4798,-97.6668 42.9538,-767.23107 27,-847 -8,-43 -51,-68 -115,-68 -44,0 -67,-24 -40,-41 15,-10 485,-6 495,4 4,3 4,13 1,20 -4,10 -27,16 -76,19 -81,4 -101,17 -118,80 -7,26 -23.955,206 -30.955,453 -16.6066,226 -19.6764,425.7638 -21,468.6742 C 3372.6742,1343.0113 3378,1426 3400,1469 c 22,43 40,52 125,60 51,5 60,9 60,26 0,19 -8,20 -137,23 -130,2 -137,1 -162,-20 z"
       id="path3" />
    <path
       d="m 2149,757 c -27,-38 -39,-88 -39,-166 -1,-42 -5,-123 -9,-180 -8,-96 -11,-106 -39,-133 -22,-22 -42,-32 -76,-35 -41,-5 -47,-9 -44,-27 3,-21 7,-21 203,-21 110,0 205,4 212,8 22,16 2,37 -36,37 -50,0 -101,29 -123,70 -18,32 -19,54 -16,253 2,141 0,217 -7,217 -5,0 -17,-11 -26,-23 z"
       id="path4" />
  </g>
</svg>
