<svg width="367" height="328" viewBox="0 0 367 328" fill="none" xmlns="http://www.w3.org/2000/svg">
<path d="M2.14417 2.81525C1.0775 5.34858 3.74417 7.61525 7.74417 7.61525C13.2108 7.61525 22.4108 12.8152 24.6775 17.2152C26.4108 20.6819 25.8371 23.4819 25.3442 36.9486C24.8992 59.0052 24.2402 93.5078 22.6775 139.215C21.7442 165.882 21.4775 167.749 18.4108 172.149C16.0108 175.749 13.6108 177.215 7.4775 178.949C1.61084 180.682 -0.122498 181.615 0.144169 183.349C0.544169 185.349 3.61083 185.615 28.2775 186.015L56.0108 186.282L55.6108 183.349C55.3442 180.949 53.8775 180.149 47.4775 178.949C38.2775 177.082 34.5442 173.882 33.2108 166.415C32.6775 163.349 32.5442 132.415 32.9442 97.7486C33.4775 45.3486 33.8775 34.6819 35.3442 35.2152C36.4108 35.6152 36.8827 36.4152 37.2108 37.2152C37.6662 38.3255 46.9442 61.3486 54.1442 76.9486C56.0108 80.9486 58.6775 86.8153 60.0108 89.8819C64.2775 99.4819 67.4775 106.415 73.7442 120.015C77.0775 127.215 79.8775 133.349 79.8775 133.615C79.8775 133.749 82.4108 139.349 85.3442 145.882C88.4108 152.282 93.2108 162.949 96.1442 169.615C102.278 183.349 103.344 184.949 106.678 184.949C109.344 184.949 112.144 180.015 118.144 164.949C120.011 160.149 123.078 152.949 124.811 148.949C128.278 141.349 129.611 138.149 134.411 126.949C145.923 102.799 155.09 77.5851 166.011 53.2152C168.011 49.0819 170.544 43.3486 171.744 40.6819C172.944 37.8819 174.278 35.6152 174.678 35.6152C175.211 35.6152 176.011 48.6819 176.411 64.5486C178.011 118.282 179.211 138.949 180.544 138.949C182.011 138.815 189.882 122.036 194.143 115.191C195.743 111.458 194.904 108.237 194.278 68.5486C193.478 43.3486 193.211 20.5486 193.744 18.1486C194.944 11.7486 199.611 8.81525 210.278 7.88191C218.144 7.08191 219.211 6.54858 219.611 3.88191C220.011 0.948579 220.011 0.948578 201.611 0.948578C180.811 0.948578 179.478 1.48191 174.811 10.9486C171.878 16.8152 171.744 17.0819 156.011 53.6152C142.669 85.6526 127.015 116.774 114.678 149.215C111.038 158.966 103.831 137.81 102.144 134.282C98.9442 127.349 94.9442 118.549 93.3442 114.949C91.6108 111.215 88.2775 104.015 85.8775 98.9486C83.4775 93.7486 80.2775 86.9486 78.8108 83.6152C77.3442 80.2819 73.7442 72.5486 70.8108 66.2819C68.0108 60.0152 63.8775 51.0819 61.7442 46.2819C50.9338 24.7463 47.8112 1.25883 19.7442 0.948578C6.54417 0.948578 2.6775 1.34858 2.14417 2.81525Z" fill="black"/>
<path d="M270.411 46.5486C269.611 48.1486 268.278 50.1486 267.744 50.8152C263.344 56.4152 259.744 61.2152 255.478 67.6152C243.429 85.6886 223.696 112.803 215.744 124.282C212.787 128.487 209.343 133.499 206.144 138.549C205.299 139.924 199.611 147.215 193.744 155.615C187.878 164.015 180.144 175.082 176.544 180.282C172.944 185.349 168.811 191.349 167.344 193.615C165.744 195.749 164.278 197.882 163.878 198.282C163.478 198.682 162.144 200.415 160.944 202.282C159.744 204.149 148.811 219.749 136.811 236.949C103.878 283.749 99.6109 289.882 94.9442 296.282C92.5442 299.482 90.5442 303.082 90.5442 304.149C90.5442 306.282 95.0775 308.282 97.2109 306.949C97.8775 306.549 102.544 300.282 107.344 293.215C123.878 269.349 129.211 261.615 136.411 251.615C140.411 246.149 147.211 236.549 151.478 230.282C166.794 208.115 182.242 186.22 197.878 164.282C201.478 159.082 210.278 146.549 217.478 136.282C224.544 126.015 231.211 116.549 232.144 115.082C233.078 113.749 235.344 110.682 237.211 108.149C239.078 105.749 242.544 100.815 244.944 97.3486C247.478 93.8819 255.744 82.0152 263.344 71.0819C270.944 60.0152 277.211 50.0152 277.211 48.6819C277.211 47.4819 276.011 45.7486 274.544 44.9486C272.411 43.8819 271.744 44.1486 270.411 46.5486Z" fill="black"/>
<path d="M320.678 145.215C318.811 147.082 313.611 156.815 308.411 168.949C303.611 180.282 298.411 192.149 297.078 195.215C295.611 198.415 293.478 203.482 292.011 206.549C290.678 209.749 288.278 215.082 286.678 218.549C282.189 229.157 277.795 241.018 274.911 247.349C272.677 254.037 257.292 296.222 251.738 294.14C250.572 292.477 245.666 285.525 243.266 280.459C227.611 255.973 215.741 219.404 205.478 195.082C204.411 194.415 200.419 201.424 194.544 210.149C192.944 213.349 192.686 212.957 203.878 237.615C210.526 253.241 217.94 268.653 225.078 284.149C230.678 296.282 237.078 310.149 240.678 317.882C243.744 324.682 245.078 326.282 247.611 326.282C249.878 326.282 251.211 325.082 252.811 321.215C253.878 318.549 255.878 313.882 257.211 310.949C258.544 308.015 262.411 298.949 265.744 290.949C269.211 282.815 272.811 274.415 273.878 272.282C278.278 262.149 280.411 257.215 282.544 252.282C283.878 249.349 287.744 240.282 291.211 232.282C294.544 224.149 298.144 215.749 299.211 213.615C300.144 211.349 302.544 205.749 304.544 200.949C306.411 196.149 309.211 189.882 310.544 186.949C311.744 184.015 313.344 180.415 313.878 178.949C314.811 176.415 314.944 176.549 315.878 179.615C316.544 181.482 317.078 190.149 317.078 198.949C317.275 211.971 322.805 301.246 320.678 311.882C319.611 317.615 313.878 320.949 305.344 320.949C299.478 320.949 296.411 324.149 300.011 326.415C302.011 327.749 364.678 327.215 366.011 325.882C366.544 325.482 366.544 324.149 366.144 323.215C365.611 321.882 362.544 321.082 356.011 320.682C345.211 320.149 342.544 318.415 340.278 310.015C339.344 306.549 337.084 282.549 336.15 249.615C333.936 219.482 333.527 192.847 333.35 187.125C332.234 173.88 332.944 162.815 335.878 157.082C338.811 151.349 341.211 150.149 352.544 149.082C359.344 148.415 360.544 147.882 360.544 145.615C360.544 143.082 359.478 142.949 342.278 142.549C324.944 142.282 324.011 142.415 320.678 145.215Z" fill="black"/>
<path d="M169.077 252.015C165.477 257.082 163.877 263.749 163.877 274.149C163.744 279.749 163.211 290.549 162.677 298.149C161.611 310.949 161.211 312.282 157.477 315.882C154.544 318.815 151.877 320.149 147.344 320.549C141.877 321.215 141.077 321.749 141.477 324.149C141.877 326.949 142.411 326.949 168.544 326.949C183.211 326.949 195.877 326.415 196.811 325.882C199.744 323.749 197.077 320.949 192.011 320.949C185.344 320.949 178.544 317.082 175.611 311.615C173.211 307.349 173.077 304.415 173.477 277.882C173.744 259.082 173.477 248.949 172.544 248.949C171.877 248.949 170.277 250.415 169.077 252.015Z" fill="black"/>
</svg>
