<?xml version="1.0" encoding="UTF-8" standalone="no"?>
<svg
   version="1.1"
   width="571"
   height="486"
   style="clip-rule:evenodd;fill-rule:evenodd;image-rendering:optimizeQuality;shape-rendering:geometricPrecision;text-rendering:geometricPrecision"
   id="svg16"
   xmlns="http://www.w3.org/2000/svg"
   xmlns:svg="http://www.w3.org/2000/svg">
  <defs
     id="defs16" />
  <g
     id="g2">
    <path
       style="opacity:1"
       fill="#470d58"
       d="m 409.5,440.5 c 0,-45 0,-90 0,-135 -39.837,-0.332 -79.504,10e-4 -119,1 -0.691,16.761 4.475,31.427 15.5,44 2.035,3.061 3.201,6.395 3.5,10 -45.988,1.995 -92.321,2.662 -139,2 0,-1 0,-2 0,-3 0.53,-2.424 1.364,-4.757 2.5,-7 8.181,-10.024 13.348,-21.358 15.5,-34 0.985,-4.134 1.318,-8.468 1,-13 -54.333,0 -108.6667,0 -163,0 -5.3221,-1.824 -8.8221,-5.491 -10.5,-11 -0.6667,-92 -0.6667,-184 0,-276 1.8333,-4.5 5,-7.6667 9.5,-9.5 143.722,-0.9952 287.389,-0.66186 431,1 3.833,1.1667 6.333,3.6667 7.5,7.5 0.5,58.3324 0.667,116.666 0.5,175 25.336,-0.167 50.669,0 76,0.5 5.892,2.892 10.059,7.392 12.5,13.5 0.333,18 0.667,36 1,54 1.125,2.978 1.625,6.145 1.5,9.5 -1.765,58.473 -2.599,116.973 -2.5,175.5 -1.606,7.269 -5.773,12.435 -12.5,15.5 -39,0.667 -78,0.667 -117,0 -8.746,-3.933 -13.413,-10.767 -14,-20.5 z"
       id="path2" />
  </g>
  <g
     id="g3">
    <path
       style="opacity:1"
       fill="#fefefe"
       d="m 27.5,21.5 c 142,0 284,0 426,0 0,57 0,114 0,171 -10.339,-0.166 -20.672,0 -31,0.5 -7.179,3.183 -11.346,8.683 -12.5,16.5 -0.403,14.007 -0.903,28.007 -1.5,42 0,3 0,6 0,9 -127,0 -254,0 -381,0 0,-79.667 0,-159.333 0,-239 z"
       id="path3" />
  </g>
  <g
     id="g4">
    <path
       style="opacity:1"
       fill="#f0ebf1"
       d="m 480.5,197.5 c 2.412,0.194 3.412,1.527 3,4 -1.333,0 -2.667,0 -4,0 -0.067,-1.459 0.266,-2.792 1,-4 z"
       id="path4" />
  </g>
  <g
     id="g5">
    <path
       style="opacity:1"
       fill="#f0ebf2"
       d="m 451.5,206.5 c 1.676,0.683 2.343,2.017 2,4 -1,0 -2,0 -3,0 -0.067,-1.459 0.266,-2.792 1,-4 z"
       id="path5" />
  </g>
  <g
     id="g6">
    <path
       style="opacity:1"
       fill="#ebe5ed"
       d="m 467.5,207.5 c 10.022,-0.332 20.022,0.001 30,1 -0.209,0.586 -0.543,1.086 -1,1.5 -10.017,0.832 -20.017,0.666 -30,-0.5 0.363,-0.683 0.696,-1.35 1,-2 z"
       id="path6" />
  </g>
  <g
     id="g7">
    <path
       style="opacity:1"
       fill="#fefefe"
       d="m 413.5,222.5 c 13.333,0 26.667,0 40,0 0,12.667 0,25.333 0,38 -13.333,0 -26.667,0 -40,0 0,-12.667 0,-25.333 0,-38 z"
       id="path7" />
  </g>
  <g
     id="g8">
    <path
       style="opacity:1"
       fill="#fefefe"
       d="m 550.5,430.5 c -45.667,0 -91.333,0 -137,0 0,-41.333 0,-82.667 0,-124 13.51,0.329 26.844,-0.004 40,-1 5.238,-1.402 8.738,-4.735 10.5,-10 0.5,-24.331 0.667,-48.664 0.5,-73 28.667,0 57.333,0 86,0 0,69.333 0,138.667 0,208 z"
       id="path8" />
  </g>
  <g
     id="g9">
    <path
       style="opacity:1"
       fill="#d3c4d6"
       d="m 27.5,21.5 c 0,79.667 0,159.333 0,239 127,0 254,0 381,0 0,-3 0,-6 0,-9 0.979,3.125 1.313,6.458 1,10 -127.667,0 -255.333,0 -383,0 -0.3326,-80.168 7e-4,-160.168 1,-240 z"
       id="path9" />
  </g>
  <g
     id="g10">
    <path
       style="opacity:1"
       fill="#e0d6e2"
       d="m 413.5,222.5 c 0,12.667 0,25.333 0,38 13.333,0 26.667,0 40,0 -13.49,0.996 -27.156,1.329 -41,1 -0.329,-13.177 0.005,-26.177 1,-39 z"
       id="path10" />
  </g>
  <g
     id="g11">
    <path
       style="opacity:1"
       fill="#744681"
       d="m 453.5,222.5 c 0.996,13.156 1.329,26.49 1,40 -14.177,0.329 -28.177,-0.004 -42,-1 13.844,0.329 27.51,-0.004 41,-1 0,-12.667 0,-25.333 0,-38 z"
       id="path11" />
  </g>
  <g
     id="g12">
    <path
       style="opacity:1"
       fill="#b59cba"
       d="m 26.5,305.5 c 54.3333,0 108.667,0 163,0 0.318,4.532 -0.015,8.866 -1,13 0,-4 0,-8 0,-12 -54.169,0.332 -108.1692,-10e-4 -162,-1 z"
       id="path12" />
  </g>
  <g
     id="g13">
    <path
       style="opacity:1"
       fill="#c8b6cd"
       d="m 290.5,306.5 c 39.496,-0.999 79.163,-1.332 119,-1 0,45 0,90 0,135 -0.999,-44.497 -1.332,-89.164 -1,-134 -39.333,0 -78.667,0 -118,0 z"
       id="path13" />
  </g>
  <g
     id="g14">
    <path
       style="opacity:1"
       fill="#e2d8e4"
       d="m 453.5,305.5 c -13.156,0.996 -26.49,1.329 -40,1 0,41.333 0,82.667 0,124 45.667,0 91.333,0 137,0 -45.83,0.999 -91.83,1.332 -138,1 0,-42 0,-84 0,-126 13.667,0 27.333,0 41,0 z"
       id="path14" />
  </g>
  <g
     id="g15">
    <path
       style="opacity:1"
       fill="#bba6c2"
       d="m 170.5,359.5 c 0,1 0,2 0,3 46.679,0.662 93.012,-0.005 139,-2 0.904,0.709 1.237,1.709 1,3 -47,0 -94,0 -141,0 -0.268,-1.599 0.066,-2.932 1,-4 z"
       id="path15" />
  </g>
  <g
     id="g16">
    <path
       style="opacity:1"
       fill="#faf8fa"
       d="m 477.5,436.5 c 12.421,-0.411 16.588,5.255 12.5,17 -6.719,5.588 -12.719,4.922 -18,-2 -1.913,-6.53 -0.08,-11.53 5.5,-15 z"
       id="path16" />
  </g>
</svg>
